<?xml version="1.0" encoding="UTF-8"?> <svg xmlns="http://www.w3.org/2000/svg" width="14" height="13" viewBox="0 0 14 13" fill="none"><path d="M8.89429 12.6908C8.52857 13.1031 7.94 13.1031 7.57429 12.6908C7.39143 12.4846 7.3 12.2173 7.3 11.9467C7.3 11.6762 7.39143 11.4088 7.57429 11.2027L10.8143 7.55327H0.934286C0.42 7.55327 0 7.083 0 6.5C0 5.917 0.417143 5.44673 0.934286 5.44673H10.8143L7.57429 1.79732C7.20857 1.38503 7.20857 0.721507 7.57429 0.309217C7.94 -0.103072 8.52857 -0.103072 8.89429 0.309217L13.7257 5.75595C13.9029 5.95243 14 6.21977 14 6.5C14 6.78023 13.9029 7.04757 13.7257 7.24405L8.89429 12.6908Z" fill="#FBFBFB"></path></svg> 